<svg xmlns="http://www.w3.org/2000/svg" xml:space="preserve" width="32" height="32" viewBox="-0.2 -0.4 32 32"><path d="M27.6.58a23.88 23.88 0 0 1-.1 5.32 23.86 23.86 0 0 1-.63 2.75 21.37 21.37 0 0 1-1.65 3.85c-.16.28-.49.8-.73 1.18-.25.38-.71 1.01-1.04 1.42a23.82 23.82 0 0 1-2.59 2.66c-.19.14-.25.22-.24.3l.12.52c.07.31.08.57.06 1.09-.01.48-.05.76-.13.98a4.49 4.49 0 0 1-1.03 1.58 4.45 4.45 0 0 1-2.06 1.06c-.44.11-.49.13-.48.25a173.63 173.63 0 0 0 .13 1.84c0 .12.03.16.1.16a36.71 36.71 0 0 0 2.3-.21 23.61 23.61 0 0 0 2.92-.66 23.05 23.05 0 0 0 3.07-1.23c.43-.21 1-.52 1.27-.68a25.11 25.11 0 0 0 2.34-1.6 22.47 22.47 0 0 0 2.47-2.39V.57h-4.1zM11.91 22.1l-.34.06-.93.14a24.55 24.55 0 0 1-3.67.14 12 12 0 0 0-1.03-.03s.23.16.54.34a25.06 25.06 0 0 0 2.42 1.2 22.89 22.89 0 0 0 5.57 1.47c.22.03.53.06.69.06h.28l.06-.46c.04-.26.05-.58.03-.72a1.52 1.52 0 0 0-.43-.82c-.11-.1-.22-.14-.59-.17a4.52 4.52 0 0 1-1.24-.27 4.07 4.07 0 0 1-1.11-.71l-.25-.23z" style="fill:#435cb0;fill-opacity:1;stroke-width:.0544023" transform="translate(.1 -.98)"/><path d="M17.06 29.22a2.7 2.7 0 0 1-1.33-1.1 5.99 5.99 0 0 1-.37-2.92c.07-.77.04-1-.22-1.4-.18-.28-.36-.37-.88-.4a4.04 4.04 0 0 1-3.63-3.02 4.82 4.82 0 0 1 0-1.94c.05-.2.17-.54.26-.75.11-.26.17-.5.2-.86.07-1.08.6-2.6 1.43-4.13l.22-.39-.23-.18a3.3 3.3 0 0 1-.76-4.4l.23-.38-.06-.5a3.8 3.8 0 0 1 .1-1.53c.06-.3.11-.4.2-.43.24-.09.53.05 1.1.5l.48.4c.07.04.17.04.4-.03a9.9 9.9 0 0 1 2.5-.02l.53.07.42-.43c.43-.44.7-.6 1.01-.6.34 0 .5.5.56 1.7.03.81.04.84.22 1.12.32.51.44.9.47 1.6a3.46 3.46 0 0 1-.9 2.59c-.19.22-.35.43-.35.47 0 .03.14.25.3.5a9.93 9.93 0 0 1 1.45 3.85c.03.3.1.56.23.85.35.8.4 1.04.4 1.95 0 .78-.02.85-.19 1.3a4.3 4.3 0 0 1-3.13 2.65c-.28.07-.53.14-.56.16-.02.02-.01.27.02.55s.08 1.07.1 1.74c.05 1.35.06 1.38.43 1.66.11.08.3.27.4.42.17.22.21.33.21.52 0 .6-.61.99-1.26.81z" style="fill:#182c66;fill-opacity:1;stroke-width:.0571703" transform="translate(.1 -.98)"/></svg>