<svg xmlns="http://www.w3.org/2000/svg" xml:space="preserve" width="320" height="148" viewBox="-0.9 -0.5 320 148">
  <path fill="#435cb0" d="M141.34 1.06h-3.68V-.5h9.14v1.56h-3.68v11.81h-1.78zM154.49-.5h1.9v5.9h6.68V-.5h1.78v13.37h-1.78V6.86h-6.69v6.01h-1.9zm18.95 0h7.24v1.56h-5.46v4.35h4.91v1.5l-4.91.06v4.46h5.46v1.45h-7.24zm12.03 144.16h1.85c.55 2.23 2.86 2.42 4.04 1.95 1.28-.51 1.74-2.16.88-3.13-1.42-1.63-5.17-.98-6.4-3.48 0 0-1.15-2.34.82-4.14.94-.85 1.58-1.06 3.33-1.06 1.86 0 3.5.58 4.17 2.35.4 1.04.39 1.05-.74 1.04h-.98c-.46-1.24-1.34-1.68-2.61-1.83-2.87 0-2.66 2.35-2.1 3.1 1.16 1.5 5.07 1.11 6.4 3.4.4.66.5 2.04.21 2.89a4.3 4.3 0 0 1-4.5 2.71c-1.69-.25-4.17-.88-4.37-3.8zm-61.74-9.82 1.82.07 6.81 10.3.06-10.36h1.78v13.38l-1.84-.02-6.8-10.34-.05 10.36h-1.78zm18.33 13.39 4.65-12.96c.1-.3.12-.3 1.15-.3.88 0 1.04.02 1.1.19 1.58 4.36 3.2 8.7 4.74 13.07h-1.94l-1.03-2.84h-5.77l-1 2.84zm8.08-4.5c0-.05-2.2-6.15-2.24-6.3-.88 2.02-1.57 4.13-2.3 6.2-.09.24 4.54.12 4.54.1zm11.26-8.88h1.9v13.38h-1.9zm10.42.06c.61-.02 1.23.02 1.84 0v11.87h4.68v1.45h-6.58zm123.17-32.53c.03-13.73 10.97-18.66 11.45-23.21-.1-1.03-.83-1.42-2.04-1.08-.97.27-2.65 2.82-3.97 3.3-1.7.64-2.87.36-3.47-.8-.56-1.42.1-2.69.82-3.88l-16.72-38.26c1.93 0 3.86-.08 5.79.03.1.12 14.95 34.17 15 34.23.07.09 2.5-2.14 3.84-3.51 4.83-4.97 7.23-10.68 7.8-18.6.5-6.84-1.02-9.64-2.68-12.15 2.17.02 4.37-.14 6.53.06 1.4 2.04 1.73 4.38 1.76 6.8 0 5.73-2.08 11.36-6.34 17.21-4.95 6.81-13.4 13.59-14.66 16.18-.48.99-.09 1.9.81 1.87 2.83-.06 5.92-7.05 9.12-6.82 1.08.08 1.6.74 1.58 2-.03 1.55-.7 2.93-3.1 6.37-3.04 4.36-4.4 7.08-5.28 10.47-2.34 9.14.77 16.05.77 17.2-1.84.08-3.7.05-5.55.05-1-2.38-1.39-4.9-1.46-7.46zM222.42 37.4l5.29.05c.21.7 4.35 14.13 4.98 16.1 1.2 3.7 2.36 7.26 2.58 7.8 1 2.68 2.71 2.46 4.5.56 1.11-1.27 1.85-1.75 2.51-1.6.97.2 1.26 1 1.09 2.94-.38 4-2.21 6.05-2.41 10.6-.42 9.6 6.3 23.7 6.32 23.62 6.5-20 12.72-40.1 19.3-60.07h5.22v71.44h-5.24l-.06-67.41-5.98 18.74-10.7 33.46a991.96 991.96 0 0 1-4.77 14.8c-.13.14-3.96-9.96-5.59-14.75-2.48-7.3-3.68-12.67-3.5-15.66.37-6.32 5.63-12.97 5.63-15.6 0-.45-.14-.73-.38-.73-.8 0-3.83 5.66-7.78 4.63-1.67-.43-2.75-1.78-3.74-4.68-.62-1.8-4.77-15.35-6.27-19.95l.06 10.58c.06 11.8.18 15.89.68 23.91a320.48 320.48 0 0 0 3.63 32.66h-5.37zm-51.05 59.68c.36-3.38 1.36-6.46 3.49-10.7 3.4-6.79 9.67-15.18 9.67-17.73 0-.37-.37-.45-.82-.17-1.2.74-2.47 4.46-4.48 6.52-2.1 2.13-4.7 2.3-5.93.47-1.78-2.65-.23-7.3 2.92-12.6 3.89-7.3 9.05-13.94 12.06-21.68.6-1.57.6-1.83.12-2.09-1.53-.35-3.18-.25-4.76-.28V37.4l11.3.06c9.57 37.52 18.43 71.33 18.12 71.33h-5.51l-3.03-11.98a299.63 299.63 0 0 0-3.37-12.8c-3.48-8.17-10.9-8.27-15.77-5.2a18.55 18.55 0 0 0-7.04 8 20.42 20.42 0 0 0-2.17 9.41c0 4.03 1 8 4.04 12.63h-6.8c-.32-.71-2.66-5.97-2.04-11.76zm21.46-24.31a9.9 9.9 0 0 1 5.63.13c0-.18-7.1-27.97-7.37-28.87-.35-1.13-.97-2.62-1.09-2.62-4 8.63-9.18 16.63-12.2 25.7-.58 1.94-.52 2.9.2 3.48.8.63 1.85.11 4-1.97 1.66-1.6 1.92-1.8 2.7-2.01.88-.23 1.39.17 1.39 1.09 0 1.1-.6 2.75-2.95 8.02l-1.84 4.2c-.25.64 4.71-5.07 11.53-7.15zM72.29 37.39l28.25.07c2.69.52 5.12 1.57 7.15 3.4 1.82 1.9 2.68 3.92 2.95 6.9.27 9.98-10.88 14.5-18.33 18.5-6.83 3.65-10.06 6.26-11.19 9.07-1.61 4 .47 5.17 4.21 2.38 5.85-4.66 11.4-11.63 19.64-10.03 2.2 1.03 3 3.45 2.75 8.34-.14 2.63-.34 4.28-1.27 10.31-1 5.12-.87 10.39.85 15.34 1.55 3.9 4.33 6.97 4.33 7.1-2.14.1-4.3.07-6.44.07a16.86 16.86 0 0 1-4.16-7.93c-1.05-6.09.82-12.16 2.56-17.93 2.06-6.7 2.54-8.9 2.45-11.22-.18-4.75-4.74-3.74-7.09-2.13C94.88 72.4 91.5 80 83.75 81.15c-3.19.47-4.33-.33-4.33-3.01 0-4.18 3-7.88 10.7-13.18 3.63-2.53 7.4-4.89 10.63-7.94 3.22-2.9 4.93-6.48 4.1-10.76-1.08-4.35-4.74-6.35-8.76-7.35l-18.78-.08v70.01h-5.02zM122.4 98.2c-3.45-10 3.74-17.25 11.8-22.19 2.43-1.41 11.56-5.95 13.16-6.95 7.2-4.55 2.5-7.42.57-7.2-4.55.48-7.99 5.7-14.21 7.74-2.3.76-5.27.88-7.1.3-4.55-1.46-5.55-5.48-5.55-8.7 0-7.12 3.45-12.32 7.02-15.79 5.46-5.3 13.18-8.58 20.21-8.57 4.32 0 8.42.93 10.73 2.4 3.94 2.44 1.43 5.91-.57 8.8-2.6 3.87-3.8 5.66-3.84 5.78-.04.13-.74-.23-.8-.42-.1-.24 3.72-5.23 2.3-10.15-2.33-8.13-15.1-6.17-23.63 2.11-7.61 7.4-5.93 15.06-5.6 16.25 1.06 4.23 5.43 5.58 9.3 4.61 4.67-1.41 8.82-6.42 14.37-6.42 4.17 0 4.91 3.3 2.7 6.03-2.63 3.25-10.45 7.3-16.42 12.24-4.67 3.87-7.46 7.55-8.8 11.63-.77 2.34-2.42 9.32 3.06 14.71a12.73 12.73 0 0 0 7.9 3.56c4.8.5 10.72-2.39 16.65-8.1 4.1-3.95 6.21-7.63 6.28-7.64.05 0 .07 2.7.06 5.98l-.03 5.98c-6.58 2.73-33.31 12.5-39.57-5.98zM19.58 114.32c-6.72-.55-14.8-2.84-20.48-6.5 4.12.25 9.4.24 13.47-.56 1.72 3.17 7.67.58 7.62 4.76-.24.53.43 2.67-.6 2.3zm3.2-.01c-.67-2.26-1.13-5.37 2.28-5.22 4.06-1.5 5.9-6.28 4.55-10.24 3.36-3.31 6.87-6.77 9.2-10.99 7.62-12.74 7.22-29.64-.85-42.08A44.34 44.34 0 0 0 24.95 32.7c15.64 1.45 29.92 12.5 35.1 27.35 5.4 14.52 1.52 32-9.8 42.63a41.45 41.45 0 0 1-27.47 11.63z"/>
  <path fill="#182c66" d="M22.97 121.92a5.57 5.57 0 0 1-2.76-2.28c-.67-1.3-.99-3.8-.77-6.03.16-1.59.09-2.06-.44-2.9-.38-.59-.75-.76-1.83-.84a8.36 8.36 0 0 1-7.51-6.23 9.96 9.96 0 0 1 0-4.02c.11-.42.35-1.12.53-1.54a4.8 4.8 0 0 0 .4-1.78c.17-2.24 1.27-5.4 2.99-8.54l.44-.8-.46-.38a6.8 6.8 0 0 1-1.58-9.1l.47-.8-.13-1.03a7.85 7.85 0 0 1 .2-3.14c.15-.62.25-.83.44-.9.49-.18 1.1.1 2.26 1.04l1 .8c.15.1.35.1.84-.03.83-.23 3.68-.26 5.17-.06l1.09.15.86-.89c.89-.91 1.46-1.25 2.09-1.25.7 0 1.05 1.05 1.15 3.54.07 1.66.08 1.73.45 2.3.68 1.06.92 1.88.98 3.32a7.16 7.16 0 0 1-1.86 5.34c-.4.47-.71.9-.71.97 0 .07.27.54.6 1.04 1.5 2.29 2.82 5.77 3 7.96.06.61.2 1.15.48 1.77.72 1.64.82 2.13.82 4.02-.01 1.62-.03 1.76-.38 2.68-1.05 2.77-3.34 4.71-6.48 5.48-.58.15-1.1.3-1.14.34-.05.04-.04.55.03 1.13.06.59.16 2.21.21 3.61.1 2.79.12 2.86.9 3.42a5 5 0 0 1 .82.88c.33.44.43.68.43 1.07 0 1.23-1.28 2.05-2.6 1.68z"/>
</svg>
