<svg xmlns="http://www.w3.org/2000/svg" xml:space="preserve" width="69" height="96" viewBox="-0.9 -0.5 69 96">
  <path fill="#435cb0" d="M24.36 87.09c-.72-2.43-1.86-5.81 1.81-5.65 4.36-1.6 7.62-6.57 6.16-10.83 3.61-3.56 7.39-7.27 9.9-11.8 8.18-13.7 7.76-31.86-.92-45.22A47.65 47.65 0 0 0 27.33-.48c16.81 1.56 32.16 13.43 37.73 29.4 5.8 15.6 1.62 34.37-10.55 45.8-7.8 7.7-19.24 11.99-30.15 12.37Zm-3.56 0c-7.23-.59-15.15-2.9-21.25-6.83 4.43.26 8.9.18 13.27-.68 1.85 3.41 8.42.56 8.37 5.05-.26.58.72 2.86-.39 2.46z"/>
  <path fill="#182c66" d="M24.42 95.4a5.95 5.95 0 0 1-2.96-2.45c-.72-1.4-1.06-4.08-.83-6.48.17-1.7.1-2.2-.48-3.1-.4-.64-.8-.83-1.95-.92a8.99 8.99 0 0 1-8.08-6.7c-.3-1.1-.3-3.2 0-4.31.12-.46.38-1.2.58-1.65.25-.6.37-1.14.43-1.92.17-2.41 1.35-5.8 3.2-9.18l.48-.86-.5-.4a7.31 7.31 0 0 1-1.7-9.79l.51-.85-.14-1.1a8.43 8.43 0 0 1 .22-3.39c.15-.66.27-.89.47-.96.52-.2 1.17.1 2.42 1.12.49.4.98.78 1.09.86.15.11.36.1.9-.04a22 22 0 0 1 5.54-.06l1.18.16.93-.96c.95-.98 1.56-1.34 2.24-1.34.76 0 1.13 1.13 1.24 3.8.08 1.8.09 1.86.48 2.48a6.3 6.3 0 0 1 1.05 3.56 7.65 7.65 0 0 1-2 5.74c-.42.5-.76.97-.76 1.05 0 .07.29.57.65 1.11 1.6 2.46 3.02 6.2 3.23 8.55.06.66.21 1.24.5 1.9.78 1.77.89 2.3.88 4.33 0 1.74-.02 1.9-.4 2.88-1.13 2.98-3.6 5.06-6.97 5.9a8.5 8.5 0 0 0-1.22.35c-.05.05-.04.6.03 1.22.07.63.17 2.37.23 3.88.11 3 .13 3.07.96 3.68.23.17.63.6.89.93.35.49.46.74.46 1.16 0 1.32-1.37 2.2-2.8 1.8z"/>
</svg>
