<svg xmlns="http://www.w3.org/2000/svg" xml:space="preserve" width="128" height="180">
  <path fill="#435cb0" d="M46.65 164.33c-1.37-4.57-3.5-10.92 3.4-10.6 8.19-3.01 14.32-12.34 11.57-20.33 6.79-6.68 13.9-13.65 18.6-22.15 15.4-25.7 14.6-59.77-1.71-84.85A89.57 89.4 0 0 0 52.22 0c31.6 2.92 60.45 25.2 70.93 55.16 10.9 29.28 3.04 64.5-19.83 85.94-14.66 14.45-36.18 22.5-56.69 23.23zm-6.7 0C26.35 163.2 11.46 158.88 0 151.5c8.33.48 16.73.34 24.95-1.27 3.48 6.38 15.82 1.05 15.73 9.46-.49 1.1 1.36 5.36-.73 4.63z"/>
  <path fill="#182c66" d="M46.63 179.82a11.24 11.15 0 0 1-5.57-4.6c-1.37-2.62-2.02-7.65-1.57-12.16.32-3.17.19-4.1-.92-5.8-.75-1.2-1.5-1.57-3.68-1.7a16.97 16.87 0 0 1-15.26-12.6 19.26 19.26 0 0 1 0-8.07c.22-.85.7-2.27 1.1-3.1.48-1.14.7-2.13.82-3.6.3-4.53 2.54-10.86 6.04-17.2l.9-1.61-.94-.76a13.8 13.7 0 0 1-3.22-18.36l.97-1.6-.28-2.06a15.91 15.8 0 0 1 .44-6.35c.28-1.25.5-1.67.87-1.8 1-.38 2.21.18 4.57 2.1.93.75 1.85 1.46 2.05 1.61.29.2.7.19 1.7-.08a41.54 41.24 0 0 1 10.48-.1l2.23.28 1.73-1.78c1.81-1.85 2.96-2.53 4.26-2.53 1.42 0 2.13 2.13 2.33 7.13.14 3.38.17 3.49.91 4.65a11.9 11.82 0 0 1 2 6.66 14.45 14.34 0 0 1-3.8 10.77 10 9.92 0 0 0-1.43 1.99c0 .14.54 1.06 1.22 2.08 3.02 4.6 5.7 11.62 6.12 16.02.1 1.25.37 2.34.92 3.58 1.48 3.3 1.68 4.3 1.67 8.1 0 3.26-.04 3.57-.76 5.41-2.13 5.59-6.8 9.5-13.15 11.06a16.07 15.94 0 0 0-2.3.66c-.1.09-.09 1.14.05 2.28.13 1.18.32 4.45.43 7.28.21 5.62.24 5.76 1.82 6.9.43.32 1.18 1.13 1.68 1.74.65.92.85 1.39.85 2.18 0 2.48-2.56 4.13-5.28 3.38z"/>
</svg>
